<svg width="561" height="441" viewBox="0 0 561 441" fill="none" xmlns="http://www.w3.org/2000/svg">
<path fill-rule="evenodd" clip-rule="evenodd" d="M298.777 0.053404C359.241 1.2152 415.048 25.4157 460.739 64.9982C510.545 108.146 566.712 161.243 560.532 226.816C554.517 290.632 482.621 320.319 432.861 360.779C391.042 394.782 352.399 434.02 298.777 439.648C239.421 445.878 178.849 430.659 133.212 392.232C83.6278 350.483 46.5398 291.599 46.0059 226.816C45.4686 161.621 81.9081 102.21 130.462 58.652C176.419 17.4239 237.024 -1.13316 298.777 0.053404Z" fill="#009AE0"/>
<path d="M168.93 187.3V201.72H183.63C186.29 201.72 188.74 201.23 190.84 200.18C192.94 199.13 193.99 197.38 193.99 194.93C193.99 192.55 192.87 190.66 190.77 189.33C188.6 188 186.22 187.3 183.7 187.3H168.93ZM168.93 167.07V180.3H183.7C186.57 180.3 188.74 179.81 190.28 178.69C191.75 177.64 192.52 176.1 192.52 174.14C192.52 172.32 191.68 170.64 190.14 169.24C188.53 167.84 186.36 167.07 183.63 167.07H168.93ZM161.16 160H183.63C188.53 160 192.59 161.19 195.67 163.5C198.75 165.88 200.29 169.38 200.29 174C200.29 178.62 197.98 181.91 193.5 183.73C196.16 184.57 198.26 186.11 199.66 188.35C201.06 190.59 201.83 192.83 201.83 195C201.83 198.43 200.92 201.23 199.17 203.4C197.42 205.57 195.25 207.04 192.66 207.81C190.07 208.65 187.06 209 183.63 209H161.16V160ZM208.969 174.49H216.179V192.97C216.179 195.98 216.949 198.36 218.629 200.18C220.309 202 222.619 202.91 225.559 202.91C228.359 202.91 230.599 201.93 232.419 199.9C234.239 197.94 235.149 195.42 235.149 192.48V174.49H242.359V209.07H235.849L235.429 203.96C232.139 207.74 228.149 209.56 223.529 209.56C219.189 209.56 215.619 208.09 212.959 205.15C210.299 202.21 208.969 198.22 208.969 193.04V174.49ZM278.295 178.2L274.235 182.96C271.855 180.86 268.845 179.74 265.135 179.74C262.895 179.74 261.075 180.09 259.745 180.79C258.415 181.49 257.785 182.54 257.785 183.87C257.785 186.39 260.305 187.86 265.275 188.28C267.235 188.49 268.915 188.77 270.315 189.05C271.715 189.33 273.255 189.89 274.865 190.59C276.475 191.29 277.735 192.41 278.575 193.81C279.415 195.28 279.905 197.03 279.905 199.13C279.835 202.42 278.505 205.08 275.845 207.04C273.185 209.07 269.615 210.05 265.205 210.05C258.485 210.05 253.235 207.95 249.455 203.68L253.235 198.57C256.175 201.93 260.235 203.61 265.345 203.68C267.305 203.68 268.985 203.33 270.455 202.56C271.855 201.86 272.625 200.74 272.695 199.2C272.695 197.73 272.065 196.61 270.735 195.91C269.405 195.21 267.375 194.72 264.715 194.44C255.335 193.6 250.645 190.1 250.645 184.08C250.645 180.58 252.045 177.99 254.985 176.24C257.925 174.49 261.215 173.58 264.995 173.58C270.385 173.58 274.795 175.12 278.295 178.2ZM294.327 174.35V209H287.117V174.35H294.327ZM286.277 164.34C286.277 166.23 286.977 167.56 288.517 168.33C289.987 169.1 291.457 169.1 292.997 168.33C294.467 167.56 295.237 166.23 295.237 164.34C295.237 162.52 294.467 161.19 292.997 160.42C291.457 159.72 289.987 159.72 288.517 160.42C286.977 161.19 286.277 162.52 286.277 164.34ZM337.598 209H330.318V190.52C330.318 187.51 329.478 185.13 327.868 183.31C326.188 181.49 323.948 180.58 321.008 180.58C318.208 180.58 315.898 181.63 314.078 183.59C312.258 185.62 311.348 188.07 311.348 190.94V209H304.138V174.42H310.718L311.138 179.46C314.358 175.82 318.278 173.93 322.758 173.93C327.098 173.93 330.598 175.4 333.398 178.34C336.198 181.28 337.598 185.34 337.598 190.45V209ZM380.253 194.44H352.253C352.533 197.1 353.723 199.2 355.753 200.74C357.783 202.35 360.373 203.12 363.523 203.12C365.343 203.12 367.233 202.84 369.123 202.14C371.013 201.44 372.483 200.53 373.533 199.41L378.223 203.96C376.473 205.85 374.233 207.32 371.573 208.3C368.913 209.35 366.183 209.84 363.383 209.84C357.713 209.84 353.163 208.23 349.803 204.87C346.443 201.58 344.763 197.17 344.763 191.57C344.763 186.32 346.443 181.98 349.803 178.62C353.163 175.26 357.503 173.58 362.893 173.58C368.633 173.58 373.183 175.4 376.403 178.9C379.623 182.47 380.883 187.65 380.253 194.44ZM352.393 188.35H373.323C373.113 185.69 372.063 183.66 370.243 182.19C368.423 180.79 366.043 180.02 363.103 180.02C360.373 180.02 358.063 180.79 356.103 182.19C354.143 183.66 352.953 185.69 352.393 188.35ZM413.715 178.2L409.655 182.96C407.275 180.86 404.265 179.74 400.555 179.74C398.315 179.74 396.495 180.09 395.165 180.79C393.835 181.49 393.205 182.54 393.205 183.87C393.205 186.39 395.725 187.86 400.695 188.28C402.655 188.49 404.335 188.77 405.735 189.05C407.135 189.33 408.675 189.89 410.285 190.59C411.895 191.29 413.155 192.41 413.995 193.81C414.835 195.28 415.325 197.03 415.325 199.13C415.255 202.42 413.925 205.08 411.265 207.04C408.605 209.07 405.035 210.05 400.625 210.05C393.905 210.05 388.655 207.95 384.875 203.68L388.655 198.57C391.595 201.93 395.655 203.61 400.765 203.68C402.725 203.68 404.405 203.33 405.875 202.56C407.275 201.86 408.045 200.74 408.115 199.2C408.115 197.73 407.485 196.61 406.155 195.91C404.825 195.21 402.795 194.72 400.135 194.44C390.755 193.6 386.065 190.1 386.065 184.08C386.065 180.58 387.465 177.99 390.405 176.24C393.345 174.49 396.635 173.58 400.415 173.58C405.805 173.58 410.215 175.12 413.715 178.2ZM448.647 178.2L444.587 182.96C442.207 180.86 439.197 179.74 435.487 179.74C433.247 179.74 431.427 180.09 430.097 180.79C428.767 181.49 428.137 182.54 428.137 183.87C428.137 186.39 430.657 187.86 435.627 188.28C437.587 188.49 439.267 188.77 440.667 189.05C442.067 189.33 443.607 189.89 445.217 190.59C446.827 191.29 448.087 192.41 448.927 193.81C449.767 195.28 450.257 197.03 450.257 199.13C450.187 202.42 448.857 205.08 446.197 207.04C443.537 209.07 439.967 210.05 435.557 210.05C428.837 210.05 423.587 207.95 419.807 203.68L423.587 198.57C426.527 201.93 430.587 203.61 435.697 203.68C437.657 203.68 439.337 203.33 440.807 202.56C442.207 201.86 442.977 200.74 443.047 199.2C443.047 197.73 442.417 196.61 441.087 195.91C439.757 195.21 437.727 194.72 435.067 194.44C425.687 193.6 420.997 190.1 420.997 184.08C420.997 180.58 422.397 177.99 425.337 176.24C428.277 174.49 431.567 173.58 435.347 173.58C440.737 173.58 445.147 175.12 448.647 178.2Z" fill="white"/>
<path d="M222.96 243.48L225.04 246.32C222.76 248.08 221.04 250.24 219.84 252.84C218.64 255.48 218 258.24 218 261.2C218 267.6 220.32 272.56 225.04 276.12L222.8 279.2C219.92 277.28 217.68 274.76 216.12 271.64C214.56 268.52 213.76 265.24 213.72 261.76C213.64 258.16 214.4 254.72 216 251.44C217.6 248.16 219.92 245.52 222.96 243.48ZM254.188 246L242.588 274.12H237.908L226.268 246H231.308L240.228 268.76L249.188 246H254.188ZM261.576 254.2V274H257.456V254.2H261.576ZM256.976 248.48C256.976 249.56 257.376 250.32 258.256 250.76C259.096 251.2 259.936 251.2 260.816 250.76C261.656 250.32 262.096 249.56 262.096 248.48C262.096 247.44 261.656 246.68 260.816 246.24C259.936 245.84 259.096 245.84 258.256 246.24C257.376 246.68 256.976 247.44 256.976 248.48ZM282.903 257.4L283.023 254.28H287.023V274H283.103L282.903 270.8C282.263 272 281.303 272.92 280.023 273.56C278.743 274.2 277.423 274.52 276.103 274.52C273.143 274.56 270.703 273.64 268.823 271.8C266.903 269.96 265.983 267.4 265.983 264.12C265.983 260.92 266.943 258.44 268.863 256.6C270.783 254.76 273.223 253.84 276.183 253.84C277.583 253.84 278.903 254.16 280.143 254.8C281.343 255.44 282.263 256.32 282.903 257.4ZM276.503 257.6C274.663 257.6 273.143 258.2 271.943 259.4C270.703 260.6 270.103 262.16 270.103 264.12C270.103 266.12 270.703 267.68 271.943 268.88C273.143 270.08 274.663 270.68 276.503 270.68C277.663 270.68 278.703 270.44 279.623 269.96C280.543 269.48 281.223 268.88 281.703 268.08C282.183 267.32 282.503 266.48 282.743 265.56C282.983 264.64 282.983 263.72 282.743 262.76C282.503 261.84 282.183 261 281.703 260.2C281.223 259.44 280.543 258.8 279.623 258.32C278.703 257.84 277.663 257.6 276.503 257.6ZM303.293 257.72C301.533 257.72 300.013 258.32 298.813 259.52C297.573 260.72 296.973 262.28 296.973 264.12C296.973 266.04 297.573 267.56 298.773 268.76C299.973 269.96 301.493 270.56 303.293 270.56C305.053 270.56 306.533 270 307.733 268.8C308.933 267.6 309.533 266.04 309.533 264.12C309.533 262.16 308.933 260.6 307.733 259.44C306.533 258.32 305.053 257.72 303.293 257.72ZM292.613 246.04H296.733V257.36C297.333 256.28 298.293 255.44 299.653 254.8C301.013 254.16 302.333 253.84 303.653 253.84C306.573 253.84 308.973 254.76 310.853 256.56C312.693 258.36 313.653 260.88 313.653 264.12C313.653 267.32 312.693 269.8 310.813 271.64C308.893 273.48 306.493 274.4 303.573 274.4C300.453 274.4 298.173 273.24 296.733 270.88L296.493 274H292.613V246.04ZM322.162 254.2V274H318.042V254.2H322.162ZM317.562 248.48C317.562 249.56 317.962 250.32 318.842 250.76C319.682 251.2 320.522 251.2 321.402 250.76C322.242 250.32 322.682 249.56 322.682 248.48C322.682 247.44 322.242 246.68 321.402 246.24C320.522 245.84 319.682 245.84 318.842 246.24C317.962 246.68 317.562 247.44 317.562 248.48ZM327.929 246.04H332.049V274H327.929V246.04ZM341.928 254.2V274H337.808V254.2H341.928ZM337.328 248.48C337.328 249.56 337.728 250.32 338.608 250.76C339.448 251.2 340.288 251.2 341.168 250.76C342.008 250.32 342.448 249.56 342.448 248.48C342.448 247.44 342.008 246.68 341.168 246.24C340.288 245.84 339.448 245.84 338.608 246.24C337.728 246.68 337.328 247.44 337.328 248.48ZM349.734 249.04L353.894 248.6V254.32H359.654V257.88H353.854V267.28C353.854 269.44 354.774 270.52 356.694 270.52C357.454 270.52 358.294 270.32 359.214 269.84L360.414 273.36C359.054 273.96 357.734 274.24 356.454 274.24C354.294 274.32 352.614 273.76 351.454 272.56C350.294 271.36 349.734 269.6 349.734 267.28V257.88H345.934V254.32H349.734V249.04ZM378.103 254.28H382.703L370.263 283.16H365.703L369.783 273.72L361.903 254.28H366.703L370.103 263.6L372.063 269.2L374.183 263.68L378.103 254.28ZM383.035 245.96L385.155 243.12C388.195 245.16 390.475 247.8 392.075 251.08C393.675 254.36 394.435 257.8 394.355 261.36C394.275 264.88 393.475 268.2 391.955 271.32C390.395 274.44 388.155 276.96 385.275 278.84L383.115 275.72C387.795 272.12 390.115 267.16 390.075 260.84C390.075 257.88 389.475 255.12 388.275 252.48C387.075 249.88 385.315 247.72 383.035 245.96Z" fill="white"/>
<path d="M52.5646 362.9L52.5402 362.917L48.0642 356.714C47.0637 355.327 46.3943 353.886 46.0491 352.434C45.7282 350.963 45.7113 349.607 45.9983 348.364C46.3097 347.103 46.8413 345.943 47.5511 344.876C48.2786 343.833 49.1599 342.901 50.2304 342.129C51.3495 341.322 52.5429 340.72 53.8104 340.323C55.078 339.926 56.3711 339.77 57.6898 339.855C59.0084 339.939 60.3391 340.348 61.6331 341.116C62.9271 341.884 64.1007 342.998 65.1188 344.409L69.5948 350.613L52.5646 362.9ZM63.0022 345.936C61.4926 343.844 59.7016 342.694 57.5979 342.547C55.4943 342.401 53.5335 342.964 51.7332 344.263C50.0302 345.492 48.9498 347.122 48.5165 349.137C48.1075 351.133 48.6334 353.195 50.1079 355.239L53.0567 359.326L65.9511 350.023L63.0022 345.936Z" fill="white"/>
<path d="M48.0676 332.225C46.0693 333.323 44.0925 333.588 42.137 333.019C40.1815 332.451 38.6286 331.182 37.5595 329.236C36.4761 327.264 36.2115 325.287 36.7801 323.332C37.3488 321.376 38.6585 319.835 40.6568 318.737C42.6287 317.654 44.5937 317.43 46.5492 317.999C48.5047 318.567 50.0051 319.865 51.0741 321.811C52.1431 323.756 52.434 325.719 51.8653 327.674C51.2967 329.63 50.0395 331.142 48.0676 332.225ZM41.8269 320.867C40.4071 321.647 39.4958 322.73 39.0785 324.088C38.6757 325.474 38.7948 326.812 39.5171 328.126C40.2538 329.467 41.3075 330.326 42.6782 330.702C44.0489 331.079 45.4632 330.85 46.883 330.069C48.2502 329.318 49.1497 328.276 49.5406 326.932C49.9723 325.599 49.7863 324.264 49.0495 322.923C48.3272 321.608 47.2998 320.735 45.9291 320.359C44.5847 319.968 43.2086 320.142 41.8269 320.867Z" fill="white"/>
<path d="M36.1529 295.957L36.1644 295.984C37.2434 296.318 38.22 296.953 39.0712 297.835C39.9339 298.744 40.5862 299.773 41.0445 300.882C41.9381 303.045 42.0107 305.027 41.2574 306.896C40.5042 308.766 39.0324 310.153 36.8697 311.047C34.818 311.894 32.824 311.939 30.9432 311.158C29.0625 310.377 27.6982 308.961 26.839 306.881C25.9225 304.663 25.8939 302.63 26.7417 300.754C27.5896 298.878 29.3405 297.538 32.0499 296.711L36.8616 308.356C38.0634 307.729 38.8439 306.79 39.203 305.538C39.5736 304.314 39.4643 303.028 38.9144 301.697C38.5821 300.893 38.1113 300.146 37.4626 299.441C36.8139 298.735 36.1345 298.269 35.3967 298.054L36.1529 295.957ZM31.0304 299.664L31.0581 299.652C29.7779 300.246 28.963 301.102 28.5858 302.232C28.2086 303.362 28.3064 304.62 28.8678 305.978C29.3833 307.226 30.1906 308.158 31.2781 308.748C32.377 309.365 33.6043 309.507 34.9484 309.146L31.0304 299.664Z" fill="white"/>
<path d="M21.3469 279.923L21.3842 279.943C20.7711 281.251 20.7035 282.711 21.19 284.35C21.4972 285.386 21.9258 286.197 22.4672 286.756C23.0374 287.307 23.649 287.469 24.3019 287.244C25.4524 286.903 25.7927 285.519 25.3517 283.084C25.2417 282.397 25.1659 281.825 25.0954 281.376C25.0536 280.919 25.0438 280.359 25.0574 279.666C25.0795 279.003 25.1645 278.446 25.3497 278.015C25.5349 277.585 25.8436 277.149 26.276 276.708C26.7169 276.295 27.2579 276.009 27.9194 275.813C29.3085 275.432 30.5145 275.7 31.5951 276.6C32.6843 277.528 33.4476 278.835 33.9426 280.503C34.7789 283.322 34.5189 285.715 33.1539 287.653L31.1135 286.788C32.2304 285.173 32.4458 283.263 31.7972 281.077C31.5241 280.157 31.1041 279.374 30.5456 278.758C29.9871 278.141 29.3297 277.929 28.5159 278.139C27.8256 278.344 27.4018 278.814 27.253 279.578C27.1329 280.334 27.1845 281.351 27.3789 282.639C27.5316 283.47 27.6213 284.194 27.6195 284.821C27.6463 285.438 27.5955 286.111 27.4786 286.771C27.3702 287.461 27.1328 288.032 26.709 288.502C26.2852 288.972 25.7239 289.295 24.9761 289.517C24.0271 289.798 23.1364 289.749 22.2957 289.342C21.4923 288.954 20.8188 288.372 20.2837 287.623C19.7773 286.866 19.3892 285.98 19.099 285.002C18.4504 282.816 18.5455 280.816 19.3928 279.032L21.3469 279.923Z" fill="white"/>
<path d="M27.4239 253.04L6.64193 256.058L6.26679 253.476L27.0487 250.457L27.4239 253.04Z" fill="white"/>
<path d="M6.3937 236.787L10.7331 236.484L10.4134 231.905L12.5083 231.759L12.8301 236.368L20.6411 235.822C22.5564 235.688 23.4299 234.846 23.3212 233.289C23.2752 232.631 23.0476 231.955 22.6383 231.262L24.6232 230.402C25.1731 231.386 25.4794 232.327 25.5421 233.224C25.8192 236.333 24.252 238.006 20.8104 238.246L12.9994 238.792L13.2063 241.754L11.1114 241.901L10.9045 238.938L6.83439 239.222L6.3937 236.787Z" fill="white"/>
<path d="M18.7324 205.722L25.4811 206.373L25.2334 208.941L4.33043 206.925L5.24633 197.429C5.37306 196.115 5.75413 194.977 6.36259 193.98C6.99802 193.017 7.73273 192.274 8.6207 191.817C9.50866 191.36 10.4718 191.061 11.5101 190.921C12.5485 190.78 13.5339 190.875 14.5261 191.211C15.5184 191.548 16.3768 192.023 17.1611 192.641C17.9453 193.259 18.5245 194.129 18.9641 195.196C19.4008 196.293 19.5274 197.481 19.4006 198.794L18.7324 205.722ZM16.9819 198.561C17.074 197.606 16.9485 196.719 16.5399 195.957C16.1611 195.197 15.6455 194.605 14.9606 194.207C14.3025 193.842 13.5733 193.591 12.767 193.513C11.9906 193.438 11.2268 193.545 10.4813 193.775C9.76285 194.037 9.14364 194.52 8.59673 195.191C8.07969 195.864 7.75727 196.707 7.6651 197.663L6.9969 204.59L16.3137 205.489L16.9819 198.561Z" fill="white"/>
<path d="M14.3392 178.384L14.3158 178.348L16.5268 178.617C15.1142 177.44 14.5981 175.773 15.0313 173.657C15.2606 172.387 15.842 171.342 16.8107 170.499L18.6454 172.008C17.9599 172.664 17.5209 173.462 17.3344 174.373C17.1171 175.584 17.324 176.668 17.9491 177.653C18.5742 178.638 19.5186 179.26 20.8118 179.525L28.8942 181.18L28.4008 183.59L13.8819 180.618L14.3392 178.384Z" fill="white"/>
<path d="M25.0375 164.672C22.8597 163.997 21.2961 162.759 20.3469 160.958C19.3976 159.156 19.2317 157.157 19.8888 155.037C20.5547 152.887 21.793 151.324 23.5947 150.375C25.3964 149.425 27.4148 149.297 29.5927 149.972C31.7418 150.638 33.2679 151.896 34.2171 153.698C35.1664 155.499 35.275 157.48 34.6179 159.601C33.9608 161.721 32.7512 163.294 30.9495 164.243C29.1478 165.192 27.1867 165.338 25.0375 164.672ZM28.8734 152.293C27.326 151.813 25.9142 151.91 24.6469 152.554C23.3707 153.226 22.4908 154.241 22.0469 155.674C21.594 157.135 21.7082 158.49 22.3895 159.737C23.0708 160.985 24.2182 161.843 25.7656 162.323C27.2557 162.784 28.63 162.708 29.8687 162.055C31.1271 161.44 31.9585 160.378 32.4114 158.917C32.8554 157.484 32.7698 156.139 32.0885 154.891C31.4359 153.652 30.3547 152.783 28.8734 152.293Z" fill="white"/>
<path d="M40.4038 142.585L40.4431 142.569L28.9043 137.736L27.7801 140.42L25.7878 139.586L26.912 136.902L25.8328 136.45C24.2832 135.801 23.2279 134.904 22.6902 133.703C22.1685 132.541 22.2009 131.221 22.8035 129.782C23.2555 128.703 24.0164 127.818 25.0977 127.1L26.3916 128.748C25.6244 129.337 25.074 129.952 24.819 130.561C24.1468 132.166 24.8069 133.386 26.7715 134.209L27.8507 134.661L29.6471 130.372L31.6394 131.206L29.843 135.495L41.3542 140.316L40.4038 142.585Z" fill="white"/>
<path d="M29.3081 120.133C29.9244 120.444 30.4746 120.418 30.9585 120.057C31.4693 119.71 31.7121 119.228 31.7137 118.624C31.7153 118.02 31.408 117.563 30.7917 117.253C30.2022 116.956 29.652 116.981 29.1412 117.329C28.6573 117.69 28.4145 118.172 28.4128 118.776C28.4112 119.38 28.7186 119.837 29.3081 120.133ZM33.4626 121.822L34.5687 119.624L47.8598 126.315L46.7537 128.512L33.4626 121.822Z" fill="white"/>
<path d="M38.0709 104.489L41.8108 106.711L44.1551 102.765L45.9605 103.837L43.6009 107.809L50.3325 111.808C51.9832 112.789 53.1812 112.593 53.9779 111.252C54.315 110.685 54.5127 110 54.5709 109.197L56.6925 109.62C56.5842 110.742 56.3002 111.69 55.8406 112.463C54.2986 115.176 52.0575 115.66 49.0914 113.897L42.3597 109.898L40.8428 112.452L39.0374 111.379L40.5543 108.826L37.0466 106.742L38.0709 104.489Z" fill="white"/>
<path d="M50.0865 93.3544L48.5925 95.3838C47.7228 94.7435 47.0984 94.023 46.6887 93.1626C46.279 92.3022 46.1274 91.4455 46.2033 90.5328C46.2792 89.6201 46.4873 88.7302 46.8454 87.839C47.1857 86.9719 47.676 86.1036 48.2985 85.258C48.921 84.4124 49.6046 83.6863 50.3251 83.0619C51.0519 82.4794 51.8335 81.9744 52.6583 81.6131C53.5073 81.2695 54.3703 81.1599 55.3136 81.2955C56.2568 81.4311 57.1722 81.807 58.0661 82.4651C58.6217 82.8742 59.0757 83.3201 59.4039 83.7852C59.732 84.2504 59.9699 84.6863 60.1289 85.0269C60.2702 85.3916 60.3403 85.853 60.3392 86.411C60.3446 87.011 60.318 87.4013 60.308 87.6174C60.2801 87.8576 60.1938 88.2784 60.0492 88.8797C59.8867 89.5052 59.8296 89.8357 59.7941 89.884C59.5098 90.9786 59.4631 91.801 59.6959 92.345C59.9352 92.9309 60.5952 93.6031 61.6581 94.3856L60.1108 96.4875C58.5646 95.3492 57.6311 94.2894 57.3282 93.2841C57.0075 92.3029 57.0743 91.0482 57.511 89.5443C57.662 88.9849 57.7661 88.54 57.8231 88.2095C57.8866 87.9209 57.8889 87.5129 57.8963 86.9968C57.886 86.5048 57.7739 86.0498 57.5424 85.6559C57.3109 85.2619 56.9536 84.8871 56.4704 84.5313C55.8664 84.0867 55.2282 83.8404 54.5977 83.786C53.9494 83.7557 53.3685 83.8869 52.8373 84.2036C52.2883 84.5445 51.8054 84.8968 51.3531 85.3088C50.9007 85.7209 50.4789 86.1926 50.0876 86.7241C49.5718 87.4248 49.1882 88.1482 48.9191 88.9186C48.6499 89.689 48.621 90.4873 48.7662 91.3021C48.8937 92.141 49.3618 92.8208 50.0865 93.3544ZM62.7112 98.7745C62.1314 98.3476 61.9049 97.8456 62.0012 97.2087C62.0976 96.5718 62.4355 96.1128 63.0328 95.8075C63.6124 95.5263 64.1768 95.5693 64.7566 95.9962C65.3364 96.423 65.5692 96.967 65.4729 97.6039C65.3588 98.2649 65.0208 98.7239 64.4413 99.0051C63.8618 99.2863 63.291 99.2013 62.7112 98.7745Z" fill="white"/>
</svg>
