<svg width="681" height="832" viewBox="0 0 681 832" fill="none" xmlns="http://www.w3.org/2000/svg">
<circle cx="681" cy="416" r="415" stroke="white" stroke-width="2"/>
<path fill-rule="evenodd" clip-rule="evenodd" d="M298.777 195.053C359.241 196.215 415.048 220.416 460.739 259.998C510.545 303.146 566.712 356.243 560.532 421.816C554.517 485.632 482.621 515.319 432.861 555.779C391.042 589.782 352.399 629.02 298.777 634.648C239.421 640.878 178.849 625.659 133.212 587.232C83.6278 545.483 46.5398 486.599 46.0059 421.816C45.4686 356.621 81.9081 297.21 130.462 253.652C176.419 212.424 237.024 193.867 298.777 195.053Z" fill="#009AE0"/>
<path d="M168.93 382.3V396.72H183.63C186.29 396.72 188.74 396.23 190.84 395.18C192.94 394.13 193.99 392.38 193.99 389.93C193.99 387.55 192.87 385.66 190.77 384.33C188.6 383 186.22 382.3 183.7 382.3H168.93ZM168.93 362.07V375.3H183.7C186.57 375.3 188.74 374.81 190.28 373.69C191.75 372.64 192.52 371.1 192.52 369.14C192.52 367.32 191.68 365.64 190.14 364.24C188.53 362.84 186.36 362.07 183.63 362.07H168.93ZM161.16 355H183.63C188.53 355 192.59 356.19 195.67 358.5C198.75 360.88 200.29 364.38 200.29 369C200.29 373.62 197.98 376.91 193.5 378.73C196.16 379.57 198.26 381.11 199.66 383.35C201.06 385.59 201.83 387.83 201.83 390C201.83 393.43 200.92 396.23 199.17 398.4C197.42 400.57 195.25 402.04 192.66 402.81C190.07 403.65 187.06 404 183.63 404H161.16V355ZM208.969 369.49H216.179V387.97C216.179 390.98 216.949 393.36 218.629 395.18C220.309 397 222.619 397.91 225.559 397.91C228.359 397.91 230.599 396.93 232.419 394.9C234.239 392.94 235.149 390.42 235.149 387.48V369.49H242.359V404.07H235.849L235.429 398.96C232.139 402.74 228.149 404.56 223.529 404.56C219.189 404.56 215.619 403.09 212.959 400.15C210.299 397.21 208.969 393.22 208.969 388.04V369.49ZM278.295 373.2L274.235 377.96C271.855 375.86 268.845 374.74 265.135 374.74C262.895 374.74 261.075 375.09 259.745 375.79C258.415 376.49 257.785 377.54 257.785 378.87C257.785 381.39 260.305 382.86 265.275 383.28C267.235 383.49 268.915 383.77 270.315 384.05C271.715 384.33 273.255 384.89 274.865 385.59C276.475 386.29 277.735 387.41 278.575 388.81C279.415 390.28 279.905 392.03 279.905 394.13C279.835 397.42 278.505 400.08 275.845 402.04C273.185 404.07 269.615 405.05 265.205 405.05C258.485 405.05 253.235 402.95 249.455 398.68L253.235 393.57C256.175 396.93 260.235 398.61 265.345 398.68C267.305 398.68 268.985 398.33 270.455 397.56C271.855 396.86 272.625 395.74 272.695 394.2C272.695 392.73 272.065 391.61 270.735 390.91C269.405 390.21 267.375 389.72 264.715 389.44C255.335 388.6 250.645 385.1 250.645 379.08C250.645 375.58 252.045 372.99 254.985 371.24C257.925 369.49 261.215 368.58 264.995 368.58C270.385 368.58 274.795 370.12 278.295 373.2ZM294.327 369.35V404H287.117V369.35H294.327ZM286.277 359.34C286.277 361.23 286.977 362.56 288.517 363.33C289.987 364.1 291.457 364.1 292.997 363.33C294.467 362.56 295.237 361.23 295.237 359.34C295.237 357.52 294.467 356.19 292.997 355.42C291.457 354.72 289.987 354.72 288.517 355.42C286.977 356.19 286.277 357.52 286.277 359.34ZM337.598 404H330.318V385.52C330.318 382.51 329.478 380.13 327.868 378.31C326.188 376.49 323.948 375.58 321.008 375.58C318.208 375.58 315.898 376.63 314.078 378.59C312.258 380.62 311.348 383.07 311.348 385.94V404H304.138V369.42H310.718L311.138 374.46C314.358 370.82 318.278 368.93 322.758 368.93C327.098 368.93 330.598 370.4 333.398 373.34C336.198 376.28 337.598 380.34 337.598 385.45V404ZM380.253 389.44H352.253C352.533 392.1 353.723 394.2 355.753 395.74C357.783 397.35 360.373 398.12 363.523 398.12C365.343 398.12 367.233 397.84 369.123 397.14C371.013 396.44 372.483 395.53 373.533 394.41L378.223 398.96C376.473 400.85 374.233 402.32 371.573 403.3C368.913 404.35 366.183 404.84 363.383 404.84C357.713 404.84 353.163 403.23 349.803 399.87C346.443 396.58 344.763 392.17 344.763 386.57C344.763 381.32 346.443 376.98 349.803 373.62C353.163 370.26 357.503 368.58 362.893 368.58C368.633 368.58 373.183 370.4 376.403 373.9C379.623 377.47 380.883 382.65 380.253 389.44ZM352.393 383.35H373.323C373.113 380.69 372.063 378.66 370.243 377.19C368.423 375.79 366.043 375.02 363.103 375.02C360.373 375.02 358.063 375.79 356.103 377.19C354.143 378.66 352.953 380.69 352.393 383.35ZM413.715 373.2L409.655 377.96C407.275 375.86 404.265 374.74 400.555 374.74C398.315 374.74 396.495 375.09 395.165 375.79C393.835 376.49 393.205 377.54 393.205 378.87C393.205 381.39 395.725 382.86 400.695 383.28C402.655 383.49 404.335 383.77 405.735 384.05C407.135 384.33 408.675 384.89 410.285 385.59C411.895 386.29 413.155 387.41 413.995 388.81C414.835 390.28 415.325 392.03 415.325 394.13C415.255 397.42 413.925 400.08 411.265 402.04C408.605 404.07 405.035 405.05 400.625 405.05C393.905 405.05 388.655 402.95 384.875 398.68L388.655 393.57C391.595 396.93 395.655 398.61 400.765 398.68C402.725 398.68 404.405 398.33 405.875 397.56C407.275 396.86 408.045 395.74 408.115 394.2C408.115 392.73 407.485 391.61 406.155 390.91C404.825 390.21 402.795 389.72 400.135 389.44C390.755 388.6 386.065 385.1 386.065 379.08C386.065 375.58 387.465 372.99 390.405 371.24C393.345 369.49 396.635 368.58 400.415 368.58C405.805 368.58 410.215 370.12 413.715 373.2ZM448.647 373.2L444.587 377.96C442.207 375.86 439.197 374.74 435.487 374.74C433.247 374.74 431.427 375.09 430.097 375.79C428.767 376.49 428.137 377.54 428.137 378.87C428.137 381.39 430.657 382.86 435.627 383.28C437.587 383.49 439.267 383.77 440.667 384.05C442.067 384.33 443.607 384.89 445.217 385.59C446.827 386.29 448.087 387.41 448.927 388.81C449.767 390.28 450.257 392.03 450.257 394.13C450.187 397.42 448.857 400.08 446.197 402.04C443.537 404.07 439.967 405.05 435.557 405.05C428.837 405.05 423.587 402.95 419.807 398.68L423.587 393.57C426.527 396.93 430.587 398.61 435.697 398.68C437.657 398.68 439.337 398.33 440.807 397.56C442.207 396.86 442.977 395.74 443.047 394.2C443.047 392.73 442.417 391.61 441.087 390.91C439.757 390.21 437.727 389.72 435.067 389.44C425.687 388.6 420.997 385.1 420.997 379.08C420.997 375.58 422.397 372.99 425.337 371.24C428.277 369.49 431.567 368.58 435.347 368.58C440.737 368.58 445.147 370.12 448.647 373.2Z" fill="white"/>
<path d="M222.96 438.48L225.04 441.32C222.76 443.08 221.04 445.24 219.84 447.84C218.64 450.48 218 453.24 218 456.2C218 462.6 220.32 467.56 225.04 471.12L222.8 474.2C219.92 472.28 217.68 469.76 216.12 466.64C214.56 463.52 213.76 460.24 213.72 456.76C213.64 453.16 214.4 449.72 216 446.44C217.6 443.16 219.92 440.52 222.96 438.48ZM254.188 441L242.588 469.12H237.908L226.268 441H231.308L240.228 463.76L249.188 441H254.188ZM261.576 449.2V469H257.456V449.2H261.576ZM256.976 443.48C256.976 444.56 257.376 445.32 258.256 445.76C259.096 446.2 259.936 446.2 260.816 445.76C261.656 445.32 262.096 444.56 262.096 443.48C262.096 442.44 261.656 441.68 260.816 441.24C259.936 440.84 259.096 440.84 258.256 441.24C257.376 441.68 256.976 442.44 256.976 443.48ZM282.903 452.4L283.023 449.28H287.023V469H283.103L282.903 465.8C282.263 467 281.303 467.92 280.023 468.56C278.743 469.2 277.423 469.52 276.103 469.52C273.143 469.56 270.703 468.64 268.823 466.8C266.903 464.96 265.983 462.4 265.983 459.12C265.983 455.92 266.943 453.44 268.863 451.6C270.783 449.76 273.223 448.84 276.183 448.84C277.583 448.84 278.903 449.16 280.143 449.8C281.343 450.44 282.263 451.32 282.903 452.4ZM276.503 452.6C274.663 452.6 273.143 453.2 271.943 454.4C270.703 455.6 270.103 457.16 270.103 459.12C270.103 461.12 270.703 462.68 271.943 463.88C273.143 465.08 274.663 465.68 276.503 465.68C277.663 465.68 278.703 465.44 279.623 464.96C280.543 464.48 281.223 463.88 281.703 463.08C282.183 462.32 282.503 461.48 282.743 460.56C282.983 459.64 282.983 458.72 282.743 457.76C282.503 456.84 282.183 456 281.703 455.2C281.223 454.44 280.543 453.8 279.623 453.32C278.703 452.84 277.663 452.6 276.503 452.6ZM303.293 452.72C301.533 452.72 300.013 453.32 298.813 454.52C297.573 455.72 296.973 457.28 296.973 459.12C296.973 461.04 297.573 462.56 298.773 463.76C299.973 464.96 301.493 465.56 303.293 465.56C305.053 465.56 306.533 465 307.733 463.8C308.933 462.6 309.533 461.04 309.533 459.12C309.533 457.16 308.933 455.6 307.733 454.44C306.533 453.32 305.053 452.72 303.293 452.72ZM292.613 441.04H296.733V452.36C297.333 451.28 298.293 450.44 299.653 449.8C301.013 449.16 302.333 448.84 303.653 448.84C306.573 448.84 308.973 449.76 310.853 451.56C312.693 453.36 313.653 455.88 313.653 459.12C313.653 462.32 312.693 464.8 310.813 466.64C308.893 468.48 306.493 469.4 303.573 469.4C300.453 469.4 298.173 468.24 296.733 465.88L296.493 469H292.613V441.04ZM322.162 449.2V469H318.042V449.2H322.162ZM317.562 443.48C317.562 444.56 317.962 445.32 318.842 445.76C319.682 446.2 320.522 446.2 321.402 445.76C322.242 445.32 322.682 444.56 322.682 443.48C322.682 442.44 322.242 441.68 321.402 441.24C320.522 440.84 319.682 440.84 318.842 441.24C317.962 441.68 317.562 442.44 317.562 443.48ZM327.929 441.04H332.049V469H327.929V441.04ZM341.928 449.2V469H337.808V449.2H341.928ZM337.328 443.48C337.328 444.56 337.728 445.32 338.608 445.76C339.448 446.2 340.288 446.2 341.168 445.76C342.008 445.32 342.448 444.56 342.448 443.48C342.448 442.44 342.008 441.68 341.168 441.24C340.288 440.84 339.448 440.84 338.608 441.24C337.728 441.68 337.328 442.44 337.328 443.48ZM349.734 444.04L353.894 443.6V449.32H359.654V452.88H353.854V462.28C353.854 464.44 354.774 465.52 356.694 465.52C357.454 465.52 358.294 465.32 359.214 464.84L360.414 468.36C359.054 468.96 357.734 469.24 356.454 469.24C354.294 469.32 352.614 468.76 351.454 467.56C350.294 466.36 349.734 464.6 349.734 462.28V452.88H345.934V449.32H349.734V444.04ZM378.103 449.28H382.703L370.263 478.16H365.703L369.783 468.72L361.903 449.28H366.703L370.103 458.6L372.063 464.2L374.183 458.68L378.103 449.28ZM383.035 440.96L385.155 438.12C388.195 440.16 390.475 442.8 392.075 446.08C393.675 449.36 394.435 452.8 394.355 456.36C394.275 459.88 393.475 463.2 391.955 466.32C390.395 469.44 388.155 471.96 385.275 473.84L383.115 470.72C387.795 467.12 390.115 462.16 390.075 455.84C390.075 452.88 389.475 450.12 388.275 447.48C387.075 444.88 385.315 442.72 383.035 440.96Z" fill="white"/>
<path d="M52.5646 557.9L52.5402 557.917L48.0642 551.714C47.0637 550.327 46.3943 548.886 46.0491 547.434C45.7282 545.963 45.7113 544.607 45.9983 543.364C46.3097 542.103 46.8413 540.943 47.5511 539.876C48.2786 538.833 49.1599 537.901 50.2304 537.129C51.3495 536.322 52.5429 535.72 53.8104 535.323C55.078 534.926 56.3711 534.77 57.6898 534.855C59.0084 534.939 60.3391 535.348 61.6331 536.116C62.9271 536.884 64.1007 537.998 65.1188 539.409L69.5948 545.613L52.5646 557.9ZM63.0022 540.936C61.4926 538.844 59.7016 537.694 57.5979 537.547C55.4943 537.401 53.5335 537.964 51.7332 539.263C50.0302 540.492 48.9498 542.122 48.5165 544.137C48.1075 546.133 48.6334 548.195 50.1079 550.239L53.0567 554.326L65.9511 545.023L63.0022 540.936Z" fill="white"/>
<path d="M48.0676 527.225C46.0693 528.323 44.0925 528.588 42.137 528.019C40.1815 527.451 38.6286 526.182 37.5595 524.236C36.4761 522.264 36.2115 520.287 36.7801 518.332C37.3488 516.376 38.6585 514.835 40.6568 513.737C42.6287 512.654 44.5937 512.43 46.5492 512.999C48.5047 513.567 50.0051 514.865 51.0741 516.811C52.1431 518.756 52.434 520.719 51.8653 522.674C51.2967 524.63 50.0395 526.142 48.0676 527.225ZM41.8269 515.867C40.4071 516.647 39.4958 517.73 39.0785 519.088C38.6757 520.474 38.7948 521.812 39.5171 523.126C40.2538 524.467 41.3075 525.326 42.6782 525.702C44.0489 526.079 45.4632 525.85 46.883 525.069C48.2502 524.318 49.1497 523.276 49.5406 521.932C49.9723 520.599 49.7863 519.264 49.0495 517.923C48.3272 516.608 47.2998 515.735 45.9291 515.359C44.5847 514.968 43.2086 515.142 41.8269 515.867Z" fill="white"/>
<path d="M36.1529 490.957L36.1644 490.984C37.2434 491.318 38.22 491.953 39.0712 492.835C39.9339 493.744 40.5862 494.773 41.0445 495.882C41.9381 498.045 42.0107 500.027 41.2574 501.896C40.5042 503.766 39.0324 505.153 36.8697 506.047C34.818 506.894 32.824 506.939 30.9432 506.158C29.0625 505.377 27.6982 503.961 26.839 501.881C25.9225 499.663 25.8939 497.63 26.7417 495.754C27.5896 493.878 29.3405 492.538 32.0499 491.711L36.8616 503.356C38.0634 502.729 38.8439 501.79 39.203 500.538C39.5736 499.314 39.4643 498.028 38.9144 496.697C38.5821 495.893 38.1113 495.146 37.4626 494.441C36.8139 493.735 36.1345 493.269 35.3967 493.054L36.1529 490.957ZM31.0304 494.664L31.0581 494.652C29.7779 495.246 28.963 496.102 28.5858 497.232C28.2086 498.362 28.3064 499.62 28.8678 500.978C29.3833 502.226 30.1906 503.158 31.2781 503.748C32.377 504.365 33.6043 504.507 34.9484 504.146L31.0304 494.664Z" fill="white"/>
<path d="M21.3469 474.923L21.3842 474.943C20.7711 476.251 20.7035 477.711 21.19 479.35C21.4972 480.386 21.9258 481.197 22.4672 481.756C23.0374 482.307 23.649 482.469 24.3019 482.244C25.4524 481.903 25.7927 480.519 25.3517 478.084C25.2417 477.397 25.1659 476.825 25.0954 476.376C25.0536 475.919 25.0438 475.359 25.0574 474.666C25.0795 474.003 25.1645 473.446 25.3497 473.015C25.5349 472.585 25.8436 472.149 26.276 471.708C26.7169 471.295 27.2579 471.009 27.9194 470.813C29.3085 470.432 30.5145 470.7 31.5951 471.6C32.6843 472.528 33.4476 473.835 33.9426 475.503C34.7789 478.322 34.5189 480.715 33.1539 482.653L31.1135 481.788C32.2304 480.173 32.4458 478.263 31.7972 476.077C31.5241 475.157 31.1041 474.374 30.5456 473.758C29.9871 473.141 29.3297 472.929 28.5159 473.139C27.8256 473.344 27.4018 473.814 27.253 474.578C27.1329 475.334 27.1845 476.351 27.3789 477.639C27.5316 478.47 27.6213 479.194 27.6195 479.821C27.6463 480.438 27.5955 481.111 27.4786 481.771C27.3702 482.461 27.1328 483.032 26.709 483.502C26.2852 483.972 25.7239 484.295 24.9761 484.517C24.0271 484.798 23.1364 484.749 22.2957 484.342C21.4923 483.954 20.8188 483.372 20.2837 482.623C19.7773 481.866 19.3892 480.98 19.099 480.002C18.4504 477.816 18.5455 475.816 19.3928 474.032L21.3469 474.923Z" fill="white"/>
<path d="M27.4239 448.04L6.64193 451.058L6.26679 448.476L27.0487 445.457L27.4239 448.04Z" fill="white"/>
<path d="M6.3937 431.787L10.7331 431.484L10.4134 426.905L12.5083 426.759L12.8301 431.368L20.6411 430.822C22.5564 430.688 23.4299 429.846 23.3212 428.289C23.2752 427.631 23.0476 426.955 22.6383 426.262L24.6232 425.402C25.1731 426.386 25.4794 427.327 25.5421 428.224C25.8192 431.333 24.252 433.006 20.8104 433.246L12.9994 433.792L13.2063 436.754L11.1114 436.901L10.9045 433.938L6.83439 434.222L6.3937 431.787Z" fill="white"/>
<path d="M18.7324 400.722L25.4811 401.373L25.2334 403.941L4.33043 401.925L5.24633 392.429C5.37306 391.115 5.75413 389.977 6.36259 388.98C6.99802 388.017 7.73273 387.274 8.6207 386.817C9.50866 386.36 10.4718 386.061 11.5101 385.921C12.5485 385.78 13.5339 385.875 14.5261 386.211C15.5184 386.548 16.3768 387.023 17.1611 387.641C17.9453 388.259 18.5245 389.129 18.9641 390.196C19.4008 391.293 19.5274 392.481 19.4006 393.794L18.7324 400.722ZM16.9819 393.561C17.074 392.606 16.9485 391.719 16.5399 390.957C16.1611 390.197 15.6455 389.605 14.9606 389.207C14.3025 388.842 13.5733 388.591 12.767 388.513C11.9906 388.438 11.2268 388.545 10.4813 388.775C9.76285 389.037 9.14364 389.52 8.59673 390.191C8.07969 390.864 7.75727 391.707 7.6651 392.663L6.9969 399.59L16.3137 400.489L16.9819 393.561Z" fill="white"/>
<path d="M14.3392 373.384L14.3158 373.348L16.5268 373.617C15.1142 372.44 14.5981 370.773 15.0313 368.657C15.2606 367.387 15.842 366.342 16.8107 365.499L18.6454 367.008C17.9599 367.664 17.5209 368.462 17.3344 369.373C17.1171 370.584 17.324 371.668 17.9491 372.653C18.5742 373.638 19.5186 374.26 20.8118 374.525L28.8942 376.18L28.4008 378.59L13.8819 375.618L14.3392 373.384Z" fill="white"/>
<path d="M25.0375 359.672C22.8597 358.997 21.2961 357.759 20.3469 355.958C19.3976 354.156 19.2317 352.157 19.8888 350.037C20.5547 347.887 21.793 346.324 23.5947 345.375C25.3964 344.425 27.4148 344.297 29.5927 344.972C31.7418 345.638 33.2679 346.896 34.2171 348.698C35.1664 350.499 35.275 352.48 34.6179 354.601C33.9608 356.721 32.7512 358.294 30.9495 359.243C29.1478 360.192 27.1867 360.338 25.0375 359.672ZM28.8734 347.293C27.326 346.813 25.9142 346.91 24.6469 347.554C23.3707 348.226 22.4908 349.241 22.0469 350.674C21.594 352.135 21.7082 353.49 22.3895 354.737C23.0708 355.985 24.2182 356.843 25.7656 357.323C27.2557 357.784 28.63 357.708 29.8687 357.055C31.1271 356.44 31.9585 355.378 32.4114 353.917C32.8554 352.484 32.7698 351.139 32.0885 349.891C31.4359 348.652 30.3547 347.783 28.8734 347.293Z" fill="white"/>
<path d="M40.4038 337.585L40.4431 337.569L28.9043 332.736L27.7801 335.42L25.7878 334.586L26.912 331.902L25.8328 331.45C24.2832 330.801 23.2279 329.904 22.6902 328.703C22.1685 327.541 22.2009 326.221 22.8035 324.782C23.2555 323.703 24.0164 322.818 25.0977 322.1L26.3916 323.748C25.6244 324.337 25.074 324.952 24.819 325.561C24.1468 327.166 24.8069 328.386 26.7715 329.209L27.8507 329.661L29.6471 325.372L31.6394 326.206L29.843 330.495L41.3542 335.316L40.4038 337.585Z" fill="white"/>
<path d="M29.3081 315.133C29.9244 315.444 30.4746 315.418 30.9585 315.057C31.4693 314.71 31.7121 314.228 31.7137 313.624C31.7153 313.02 31.408 312.563 30.7917 312.253C30.2022 311.956 29.652 311.981 29.1412 312.329C28.6573 312.69 28.4145 313.172 28.4128 313.776C28.4112 314.38 28.7186 314.837 29.3081 315.133ZM33.4626 316.822L34.5687 314.624L47.8598 321.315L46.7537 323.512L33.4626 316.822Z" fill="white"/>
<path d="M38.0709 299.489L41.8108 301.711L44.1551 297.765L45.9605 298.837L43.6009 302.809L50.3325 306.808C51.9832 307.789 53.1812 307.593 53.9779 306.252C54.315 305.685 54.5127 305 54.5709 304.197L56.6925 304.62C56.5842 305.742 56.3002 306.69 55.8406 307.463C54.2986 310.176 52.0575 310.66 49.0914 308.897L42.3597 304.898L40.8428 307.452L39.0374 306.379L40.5543 303.826L37.0466 301.742L38.0709 299.489Z" fill="white"/>
<path d="M50.0865 288.354L48.5925 290.384C47.7228 289.743 47.0984 289.023 46.6887 288.163C46.279 287.302 46.1274 286.446 46.2033 285.533C46.2792 284.62 46.4873 283.73 46.8454 282.839C47.1857 281.972 47.676 281.104 48.2985 280.258C48.921 279.412 49.6046 278.686 50.3251 278.062C51.0519 277.479 51.8335 276.974 52.6583 276.613C53.5073 276.27 54.3703 276.16 55.3136 276.295C56.2568 276.431 57.1722 276.807 58.0661 277.465C58.6217 277.874 59.0757 278.32 59.4039 278.785C59.732 279.25 59.9699 279.686 60.1289 280.027C60.2702 280.392 60.3403 280.853 60.3392 281.411C60.3446 282.011 60.318 282.401 60.308 282.617C60.2801 282.858 60.1938 283.278 60.0492 283.88C59.8867 284.505 59.8296 284.836 59.7941 284.884C59.5098 285.979 59.4631 286.801 59.6959 287.345C59.9352 287.931 60.5952 288.603 61.6581 289.386L60.1108 291.487C58.5646 290.349 57.6311 289.289 57.3282 288.284C57.0075 287.303 57.0743 286.048 57.511 284.544C57.662 283.985 57.7661 283.54 57.8231 283.209C57.8866 282.921 57.8889 282.513 57.8963 281.997C57.886 281.505 57.7739 281.05 57.5424 280.656C57.3109 280.262 56.9536 279.887 56.4704 279.531C55.8664 279.087 55.2282 278.84 54.5977 278.786C53.9494 278.756 53.3685 278.887 52.8373 279.204C52.2883 279.545 51.8054 279.897 51.3531 280.309C50.9007 280.721 50.4789 281.193 50.0876 281.724C49.5718 282.425 49.1882 283.148 48.9191 283.919C48.6499 284.689 48.621 285.487 48.7662 286.302C48.8937 287.141 49.3618 287.821 50.0865 288.354ZM62.7112 293.774C62.1314 293.348 61.9049 292.846 62.0012 292.209C62.0976 291.572 62.4355 291.113 63.0328 290.807C63.6124 290.526 64.1768 290.569 64.7566 290.996C65.3364 291.423 65.5692 291.967 65.4729 292.604C65.3588 293.265 65.0208 293.724 64.4413 294.005C63.8618 294.286 63.291 294.201 62.7112 293.774Z" fill="white"/>
</svg>
