<svg width="200" height="44" viewBox="0 0 200 44" fill="none" xmlns="http://www.w3.org/2000/svg">
<path d="M194.227 43.9467H197.9L194.227 40.2646C193.4 39.4006 192.406 38.7114 191.305 38.2382C190.204 37.7649 189.018 37.5174 187.819 37.5104C186.689 37.5104 185.585 37.1773 184.646 36.5533C183.707 35.9293 182.975 35.0423 182.543 34.0046C182.111 32.9669 181.998 31.825 182.218 30.7234C182.438 29.6218 182.982 28.6099 183.781 27.8156C184.579 27.0214 185.597 26.4805 186.705 26.2614C187.812 26.0423 188.961 26.1548 190.004 26.5846C191.047 27.0144 191.939 27.7423 192.567 28.6762C193.194 29.6101 193.529 30.7081 193.529 31.8313V31.8313C193.536 33.0243 193.785 34.2037 194.26 35.2989C194.736 36.394 195.429 37.3826 196.298 38.2052L200 41.8676V38.2052V31.769C199.996 30.971 199.913 30.1753 199.752 29.3934C199.433 27.8437 198.81 26.3717 197.919 25.0613C196.597 23.1136 194.736 21.589 192.56 20.6724C191.823 20.3627 191.057 20.1262 190.273 19.9666C188.653 19.6384 186.983 19.6384 185.363 19.9666C183.805 20.2841 182.324 20.9035 181.007 21.7896C179.048 23.1043 177.515 24.9558 176.594 27.1196C176.282 27.8524 176.044 28.614 175.884 29.3934C175.554 31.0047 175.554 32.6657 175.884 34.2769C176.203 35.8266 176.826 37.2987 177.717 38.609C179.039 40.5556 180.901 42.079 183.076 42.9947C183.814 43.3046 184.581 43.541 185.366 43.7005C186.152 43.86 186.952 43.9425 187.755 43.9467H194.227Z" fill="#303030"/>
<path d="M5.70172 43.697H2.07075L5.70172 40.2709C7.39453 38.6284 9.66554 37.7084 12.0306 37.7072V37.7072C13.5098 37.7171 14.9366 37.1626 16.017 36.1577C16.5357 35.6815 16.95 35.1039 17.234 34.4611C17.518 33.8183 17.6656 33.1241 17.6674 32.422C17.6214 30.9789 17.0025 29.6127 15.9461 28.6222C14.8898 27.6317 13.4819 27.0977 12.0306 27.1369C10.5787 27.0971 9.17017 27.631 8.11329 28.6218C7.05641 29.6126 6.43733 30.9794 6.3916 32.4231V32.4231C6.37786 33.5471 6.12733 34.6557 5.65619 35.6774C5.18505 36.6991 4.50376 37.6112 3.65627 38.3549L0 41.758V38.3517V32.3618C0.00733326 30.8684 0.329304 29.393 0.945152 28.0309C1.24974 27.3571 1.62128 26.7152 2.05425 26.1149C2.48811 25.5131 2.97927 24.9543 3.52094 24.4462C4.06957 23.9327 4.66563 23.4719 5.30121 23.0696C5.94819 22.6605 6.63225 22.3125 7.34446 22.0301C8.07465 21.7412 8.83059 21.5214 9.60226 21.3736C11.204 21.0681 12.8495 21.0681 14.4513 21.3736C15.2229 21.5214 15.9789 21.7413 16.7091 22.0301C17.4213 22.3124 18.1053 22.6605 18.7523 23.0696C19.3879 23.4719 19.9839 23.9327 20.5326 24.4462C21.0765 24.954 21.5699 25.5128 22.0059 26.1149C22.4388 26.7152 22.8104 27.3571 23.115 28.0309C23.7388 29.4111 24.0614 30.9071 24.0614 32.4204C24.0614 33.9336 23.7388 35.4297 23.115 36.8099C22.8103 37.4833 22.4387 38.1248 22.0059 38.7248C21.5712 39.3266 21.0793 39.8854 20.537 40.3935C19.9883 40.9069 19.3922 41.3677 18.7567 41.77C18.1097 42.1791 17.4256 42.5272 16.7135 42.8095C15.9833 43.0985 15.2273 43.3183 14.4557 43.4661C13.677 43.6147 12.8862 43.6913 12.0933 43.6948H5.70172V43.697ZM0 23.8958V20.4971V14.5073V9.39068C0 9.37974 0 9.36879 0 9.35785V9.22107C0.0279284 8.1131 0.28797 7.02311 0.763507 6.02075C1.23904 5.0184 1.91962 4.12572 2.76174 3.39977L6.3905 0V3.39977V14.5609C6.37932 15.6883 6.12754 16.8004 5.65182 17.8238C5.1761 18.8471 4.48729 19.7583 3.63097 20.4971L0 23.8969V23.8958Z" fill="#232323"/>
<path d="M120.72 43.7452H124.386L120.72 40.0697C119.894 39.2073 118.902 38.5194 117.803 38.0471C116.704 37.5748 115.52 37.3279 114.323 37.321V37.321C113.195 37.321 112.093 36.9885 111.156 36.3656C110.218 35.7426 109.488 34.8572 109.056 33.8213C108.625 32.7854 108.512 31.6455 108.732 30.5458C108.952 29.4461 109.495 28.4359 110.292 27.6431C111.089 26.8502 112.105 26.3103 113.211 26.0915C114.317 25.8728 115.463 25.9851 116.504 26.4142C117.546 26.8432 118.436 27.5699 119.063 28.5022C119.689 29.4345 120.024 30.5306 120.024 31.6518V31.6518C120.03 32.8426 120.279 34.0197 120.754 35.1128C121.229 36.2059 121.92 37.1926 122.788 38.0137L126.483 41.6662V38.0137V31.5894C126.48 30.7918 126.397 29.9965 126.237 29.215C125.918 27.668 125.297 26.1986 124.407 24.8906C123.087 22.948 121.229 21.4277 119.058 20.5137C118.322 20.2044 117.557 19.9683 116.774 19.809C115.157 19.4814 113.49 19.4814 111.873 19.809C110.317 20.1259 108.84 20.7442 107.524 21.6287C105.571 22.9417 104.042 24.7896 103.123 26.9488C102.812 27.6805 102.575 28.4411 102.414 29.2193C102.085 30.8278 102.085 32.4857 102.414 34.0941C102.733 35.6411 103.355 37.1105 104.244 38.4185C105.565 40.3611 107.423 41.8814 109.594 42.7954C110.328 43.1041 111.092 43.3398 111.873 43.499C112.658 43.6587 113.458 43.7411 114.26 43.7452H120.72Z" fill="#232323"/>
<path d="M126.293 25.6178V21.9773V15.5629V10.0797C126.293 10.0677 126.293 10.0568 126.293 10.0447V9.89811C126.272 8.72585 126.015 7.56971 125.536 6.4983C125.057 5.42689 124.367 4.46204 123.506 3.661L119.845 0.0205052V3.66976V15.6253C119.851 16.8161 120.102 17.9932 120.581 19.0844C121.061 20.1757 121.759 21.1582 122.633 21.9718L126.293 25.6178Z" fill="#232323"/>
<path d="M63.8988 43.6978H67.5628L63.8988 40.0277C63.075 39.1674 62.0853 38.4809 60.9889 38.0094C59.8924 37.5379 58.7116 37.291 57.5171 37.2834V37.2834C56.3916 37.2834 55.2914 36.9515 54.3556 36.3297C53.4198 35.7079 52.6904 34.8241 52.2596 33.79C51.8289 32.756 51.7161 31.6181 51.9356 30.5203C52.1551 29.4226 52.697 28.4142 53.4927 27.6226C54.2885 26.8311 55.3024 26.292 56.4062 26.0736C57.51 25.8551 58.6542 25.967 59.6941 26.3952C60.7339 26.8233 61.6228 27.5485 62.2482 28.4791C62.8736 29.4096 63.2076 30.5037 63.2078 31.6229C63.2154 32.8109 63.4636 33.9852 63.9378 35.0756C64.4119 36.1661 65.1022 37.1503 65.9673 37.9695L69.6533 41.6187V37.9749V31.5606C69.6494 30.7644 69.5668 29.9706 69.4069 29.1905C69.0881 27.6473 68.4671 26.1817 67.5793 24.877C66.2619 22.9348 64.4063 21.4144 62.2373 20.5001C61.503 20.1913 60.7397 19.9557 59.9586 19.7965C58.3438 19.4694 56.6793 19.4694 55.0645 19.7965C53.5114 20.1127 52.0361 20.7299 50.7228 21.6129C48.7699 22.9231 47.241 24.7685 46.3216 26.9254C46.0111 27.6557 45.7741 28.4148 45.6141 29.1916C45.2851 30.7974 45.2851 32.4528 45.6141 34.0587C45.932 35.6033 46.5526 37.0704 47.4406 38.3765C48.758 40.3187 50.6136 41.8391 52.7825 42.7534C53.5184 43.061 54.2832 43.2952 55.0656 43.4526C55.85 43.6117 56.6483 43.6938 57.4489 43.6978H63.8988Z" fill="#232323"/>
<path d="M142.722 43.9467C143.546 43.9468 144.369 43.8643 145.177 43.7005C146.735 43.3831 148.215 42.7636 149.533 41.8775C151.491 40.5628 153.024 38.7113 153.946 36.5475C154.258 35.8147 154.495 35.053 154.656 34.2737C154.986 32.6624 154.986 31.0014 154.656 29.3901C154.337 27.8404 153.714 26.3684 152.823 25.0581C151.501 23.1103 149.639 21.5857 147.463 20.6691C146.726 20.3594 145.96 20.123 145.177 19.9633C143.557 19.6351 141.886 19.6351 140.266 19.9633C138.708 20.2807 137.228 20.9002 135.91 21.7863C133.952 23.101 132.418 24.9525 131.497 27.1163C131.185 27.8491 130.948 28.6107 130.787 29.3901C130.457 31.0014 130.457 32.6624 130.787 34.2737C131.106 35.8234 131.729 37.2954 132.62 38.6057C133.942 40.5535 135.804 42.0781 137.98 42.9947C138.718 43.3046 139.485 43.541 140.269 43.7005C141.077 43.8642 141.898 43.9467 142.722 43.9467V43.9467ZM142.722 26.1534C143.851 26.1534 144.956 26.4865 145.895 27.1105C146.834 27.7345 147.566 28.6214 147.998 29.6592C148.43 30.6969 148.543 31.8387 148.323 32.9404C148.102 34.042 147.559 35.0539 146.76 35.8481C145.961 36.6424 144.944 37.1832 143.836 37.4024C142.728 37.6215 141.58 37.509 140.537 37.0792C139.493 36.6494 138.601 35.9215 137.974 34.9876C137.346 34.0536 137.011 32.9556 137.011 31.8324C137.014 30.3271 137.617 28.8843 138.687 27.8199C139.758 26.7555 141.208 26.1563 142.722 26.1534V26.1534Z" fill="#303030"/>
<path d="M30.3291 43.6975V31.2419H30.339C30.3635 30.6033 30.4371 29.9675 30.5591 29.3401C30.7115 28.5716 30.9373 27.8194 31.2335 27.0936C31.522 26.3846 31.8771 25.7043 32.2942 25.0617C32.7054 24.4288 33.1759 23.836 33.6993 23.2912C34.2186 22.7507 34.789 22.2611 35.4025 21.8293C35.7372 21.5943 36.0843 21.3773 36.4423 21.1793V21.9672V31.2419V33.7969C36.4423 33.7969 36.4423 33.7969 36.4423 33.8045V33.8155C36.4423 33.8286 36.4423 33.8418 36.4423 33.856C36.437 35.0198 36.201 36.1711 35.7478 37.2441C35.2947 38.3172 34.6334 39.2908 33.8016 40.1095L33.7015 40.2134L33.6938 40.2047L30.3291 43.6975ZM36.4423 31.6883V21.1618C36.7416 20.9966 37.0486 20.8445 37.3578 20.7088C38.7685 20.0878 40.2943 19.7676 41.8371 19.7689V26.1252C41.1227 26.1261 40.416 26.2721 39.7604 26.5543C39.1047 26.8366 38.5141 27.2491 38.0245 27.7666C37.0126 28.8238 36.4467 30.2265 36.4434 31.6861L36.4423 31.6883Z" fill="#232323"/>
<path d="M157.357 43.9451V31.333H157.368C157.395 30.6862 157.471 30.0424 157.596 29.4072C157.75 28.6293 157.978 27.8679 158.278 27.1334C158.572 26.4157 158.933 25.7272 159.358 25.0773C159.777 24.436 160.255 23.8355 160.788 23.2839C161.317 22.7359 161.898 22.2397 162.522 21.8023C162.863 21.5648 163.216 21.3456 163.581 21.1457V21.9434V31.3341V33.9209C163.581 33.9209 163.581 33.9209 163.581 33.9285V33.9406C163.581 33.9537 163.581 33.9679 163.581 33.9811C163.574 35.1608 163.334 36.3276 162.872 37.4144C162.411 38.5012 161.738 39.4864 160.892 40.3134L160.79 40.4228L160.783 40.414L157.357 43.9451ZM163.581 31.7849V21.126C163.884 20.9597 164.198 20.8098 164.509 20.6676C165.947 20.0381 167.5 19.7139 169.071 19.7156V26.1518C168.345 26.1522 167.626 26.2997 166.959 26.5852C166.292 26.8708 165.69 27.2885 165.19 27.8129C164.16 28.8819 163.584 30.3044 163.581 31.7849V31.7849Z" fill="#303030"/>
<path d="M98.0814 43.9451L94.5231 40.4064L94.5143 40.4151L94.4043 40.3057C93.5312 39.4935 92.8331 38.5135 92.3523 37.425C91.8715 36.3365 91.6181 35.1622 91.6073 33.9734C91.6073 33.9603 91.6073 33.946 91.6073 33.9329V33.922C91.6073 33.922 91.6073 33.922 91.6073 33.9143V31.7849C91.5923 30.2876 90.9843 28.8566 89.9153 27.8021C88.8463 26.7476 87.4025 26.1546 85.8968 26.1518V19.7156C86.7217 19.7153 87.5444 19.7978 88.3526 19.9618C89.1375 20.1212 89.9044 20.3577 90.6424 20.6676C90.9724 20.8043 91.2948 20.9597 91.6106 21.126V31.3319V21.9423V21.1446C93.489 22.1332 95.074 23.5941 96.2076 25.3818C97.3412 27.1694 97.9839 29.2214 98.0715 31.333H98.0825V43.944L98.0814 43.9451ZM73.7188 43.9451V31.333H73.7298C73.757 30.6858 73.8361 30.0418 73.9663 29.4072C74.2857 27.8582 74.9086 26.387 75.7994 25.0773C76.9177 23.4289 78.4255 22.0786 80.1907 21.1446V31.333V33.9198C80.1907 33.9198 80.1907 33.9198 80.1907 33.9274V33.9406C80.1907 33.9537 80.1907 33.9679 80.1907 33.981C80.1799 35.1699 79.9264 36.3442 79.4457 37.4327C78.9649 38.5212 78.2668 39.5012 77.3937 40.3134L77.2837 40.4228L77.2749 40.414L73.7188 43.9451ZM80.1907 31.7849V21.126C80.5065 20.9586 80.8332 20.8043 81.1589 20.6676C81.8958 20.3579 82.6617 20.1214 83.4453 19.9618C84.2532 19.7979 85.0756 19.7154 85.9001 19.7156V26.1518C84.3944 26.1546 82.9505 26.7476 81.8816 27.8021C80.8126 28.8566 80.2046 30.2876 80.1896 31.7849H80.1907Z" fill="#232323"/>
</svg>
